<?xml version="1.0" encoding="UTF-8"?>
<svg id="Layer_2" data-name="Layer 2" xmlns="http://www.w3.org/2000/svg" viewBox="0 0 176.62 167.89">
  <g id="Capa_1" data-name="Capa 1">
    <path d="M36,159.83c0,4.46,3.62,8.06,8.06,8.06h11.31c4.46,0,8.06-3.6,8.06-8.06v-21.71l-27.42-13.75v35.46ZM141.14,40.21c1.73,0,3.44-.67,4.77-1.98l20.33-20.33c2.62-2.63,2.62-6.88,0-9.52-2.63-2.63-6.9-2.63-9.52,0l-20.33,20.33c-2.63,2.63-2.63,6.88,0,9.52,1.31,1.31,3.02,1.98,4.75,1.98ZM117.31,0c-1.42,0-2.87.33-4.25,1.02L29.15,43.12l-19-.12h-.08c-5.56,0-10.08,4.5-10.08,10.06v45.77c0,5.56,4.52,10.08,10.08,10.08h19.08l83.91,42.1c1.38.71,2.83,1.02,4.25,1.02,4.96,0,9.46-3.98,9.46-9.48V9.48C126.77,3.98,122.27,0,117.31,0ZM113.31,136.08l-78.12-39.21-2.85-1.42H13.46v-38.96l15.62.1,3.23.02,2.88-1.44L113.31,15.94v120.14ZM145.89,105.64c-2.62-2.62-6.88-2.63-9.5,0-2.63,2.63-2.63,6.88,0,9.52l20.33,20.33c1.31,1.33,3.04,1.98,4.75,1.98s3.44-.65,4.77-1.98c2.62-2.62,2.62-6.88,0-9.52l-20.35-20.33ZM169.89,65.21h-28.75c-3.71,0-6.73,3-6.73,6.73s3.02,6.73,6.73,6.73h28.75c3.71,0,6.73-3.02,6.73-6.73s-3.02-6.73-6.73-6.73Z"/>
  </g>
</svg>